# xmcd CD database file
#
# Track frame offsets:
#	150
#	23944
#	39776
#
# Disc length: 786 seconds
#
# Revision: 0
# Processed by: cddbd v1.5.2PL0 Copyright (c) Steve Scherf et al.
# Submitted via: CDex 1.70beta3
#
DISCID=17031003
DTITLE=→Pia-no-jaC← - EAT A
DYEAR=2013
DGENRE=Jazz
TTITLE0=台風 Sandy in NY
TTITLE1=組曲『 』 Extra session
TTITLE2=美しき青きドナウ Caribbean Blue
EXTD=YEAR: 2013
EXTT0=
EXTT1=
EXTT2=
PLAYORDER=
